<?xml version="1.0" encoding="UTF-8" standalone="no"?>
<!-- Created with Inkscape (http://www.inkscape.org/) -->

<svg
   width="229.36031mm"
   height="229.36037mm"
   viewBox="0 0 229.36031 229.36037"
   version="1.1"
   id="svg1"
   xml:space="preserve"
   xmlns="http://www.w3.org/2000/svg"
   xmlns:svg="http://www.w3.org/2000/svg"><defs
     id="defs1" /><g
     id="layer1"
     transform="translate(132.69463,-855.86527)"><rect
       style="fill:#ffffff;fill-opacity:1;stroke-width:14.362;stroke-linecap:round;stroke-linejoin:round"
       id="rect10"
       width="229.36031"
       height="229.36031"
       x="-132.69463"
       y="855.8653" /><g
       id="g2"
       transform="matrix(1.4050925,0,0,1.4050925,7.2975279,-393.16071)"><circle
         style="fill:#333333;stroke-width:3.14047;stroke-linecap:round;stroke-linejoin:round"
         id="circle10"
         cx="-18.014473"
         cy="970.54547"
         r="59.01889" /><circle
         style="fill:#ffffff;fill-opacity:1;stroke-width:2.72688;stroke-linecap:round;stroke-linejoin:round"
         id="circle11"
         cx="-18.014473"
         cy="970.54547"
         r="51.246326" /><g
         id="g13"
         transform="matrix(0.77182994,0,0,0.77182994,-57.765134,424.77478)"><text
           xml:space="preserve"
           style="font-style:normal;font-variant:normal;font-weight:normal;font-stretch:normal;font-size:28.4701px;line-height:1;font-family:'Ubuntu Condensed';-inkscape-font-specification:'Ubuntu Condensed, Normal';font-variant-ligatures:normal;font-variant-caps:normal;font-variant-numeric:normal;font-variant-east-asian:normal;text-align:center;word-spacing:0px;text-anchor:middle;fill:#333333;stroke-width:25.4214;stroke-linecap:round;stroke-linejoin:round"
           x="15.680717"
           y="704.28864"
           id="text11"><tspan
             style="font-style:normal;font-variant:normal;font-weight:normal;font-stretch:normal;font-size:28.4701px;font-family:'Ubuntu Condensed';-inkscape-font-specification:'Ubuntu Condensed, Normal';font-variant-ligatures:normal;font-variant-caps:normal;font-variant-numeric:normal;font-variant-east-asian:normal;text-align:center;text-anchor:middle;fill:#333333;stroke-width:25.4213"
             x="15.680718"
             y="704.28864"
             id="tspan11">IISS</tspan></text><path
           style="fill:#333333;stroke-width:6.61501;stroke-linecap:round;stroke-linejoin:round"
           d="m -68.337459,250.48618 c 0.144205,-0.92668 0.432614,-2.78004 1.320871,-5.06831 0.888258,-2.28827 2.376305,-5.01135 5.340093,-8.39584 2.963788,-3.3845 7.403105,-7.43018 11.92173,-10.65209 4.518626,-3.22191 9.116284,-5.61986 12.374098,-7.01695 3.257813,-1.39709 5.175618,-1.79325 6.044689,-1.85611 0.86907,-0.0629 0.68938,0.20757 0.03949,0.72886 -0.649889,0.52129 -1.769927,1.2934 -3.433486,2.63122 -1.663559,1.33782 -3.870537,3.24127 -5.406262,5.03233 -1.535724,1.79105 -2.400125,3.46962 -2.749515,4.67882 -0.349389,1.20921 -0.183756,1.949 -0.237446,2.37577 -0.05369,0.42676 -0.326701,0.54048 -0.953201,0.65773 -0.6265,0.11725 -1.606451,0.23802 -2.879733,0.79198 -1.273283,0.55396 -2.839816,1.54106 -4.218721,2.80778 -1.378905,1.26672 -2.570097,2.81297 -3.248857,3.84825 -0.678759,1.03529 -0.845057,1.55956 -1.199632,1.76257 -0.354575,0.20301 -0.897409,0.0848 -1.673293,0.007 -0.775884,-0.0781 -1.784771,-0.11616 -3.281285,0.29131 -1.496513,0.40746 -3.48055,1.26038 -4.71509,2.21694 -1.234539,0.95657 -1.719519,2.01672 -2.047197,3.05155 -0.327679,1.03484 -0.49804,2.0443 -0.662075,2.54579 -0.164036,0.50149 -0.321699,0.49499 -0.400542,0.49174 -0.07884,-0.003 -0.07884,-0.003 0.06536,-0.92996 z"
           id="path11"
           transform="matrix(0.4875448,0,0,0.4875448,72.920609,578.0638)" /><path
           id="path12"
           style="fill:#333333;stroke-width:3.22511;stroke-linecap:round;stroke-linejoin:round"
           d="m 38.86913,700.3938 v 1.93645 h -0.542189 v 1.19271 h -0.542438 v 1.19271 h 4.063886 v -1.19271 h -0.542188 v -1.19271 h -0.542189 v -1.93645 z" /><text
           xml:space="preserve"
           style="font-style:normal;font-variant:normal;font-weight:normal;font-stretch:normal;font-size:28.4701px;line-height:1;font-family:'Ubuntu Condensed';-inkscape-font-specification:'Ubuntu Condensed, Normal';font-variant-ligatures:normal;font-variant-caps:normal;font-variant-numeric:normal;font-variant-east-asian:normal;text-align:center;word-spacing:0px;text-anchor:middle;fill:#333333;stroke-width:25.4214;stroke-linecap:round;stroke-linejoin:round"
           x="81.657387"
           y="704.28864"
           id="text12"><tspan
             style="font-style:normal;font-variant:normal;font-weight:normal;font-stretch:normal;font-size:28.4701px;font-family:'Ubuntu Condensed';-inkscape-font-specification:'Ubuntu Condensed, Normal';font-variant-ligatures:normal;font-variant-caps:normal;font-variant-numeric:normal;font-variant-east-asian:normal;text-align:center;text-anchor:middle;fill:#333333;stroke-width:25.4213"
             x="81.657387"
             y="704.28864"
             id="tspan12">BOY</tspan></text><text
           xml:space="preserve"
           style="font-style:normal;font-variant:normal;font-weight:normal;font-stretch:normal;font-size:28.4701px;line-height:1;font-family:'Ubuntu Condensed';-inkscape-font-specification:'Ubuntu Condensed, Normal';font-variant-ligatures:normal;font-variant-caps:normal;font-variant-numeric:normal;font-variant-east-asian:normal;text-align:center;word-spacing:0px;text-anchor:middle;fill:#333333;stroke-width:25.4214;stroke-linecap:round;stroke-linejoin:round"
           x="49.187916"
           y="724.45874"
           id="text13"><tspan
             style="font-style:normal;font-variant:normal;font-weight:normal;font-stretch:normal;font-size:28.4701px;font-family:'Ubuntu Condensed';-inkscape-font-specification:'Ubuntu Condensed, Normal';font-variant-ligatures:normal;font-variant-caps:normal;font-variant-numeric:normal;font-variant-east-asian:normal;text-align:center;text-anchor:middle;fill:#333333;stroke-width:25.4213"
             x="49.18792"
             y="724.45874"
             id="tspan13">ALUMNI</tspan></text></g></g></g></svg>
